Daubenton.ufo
<glyph name="exclam" format="1">
  <advance width="298"/>
  <unicode hex="0021"/>
  <outline>
    <contour>
      <point x="154" y="147" type="line"/>
      <point x="169" y="713" type="line"/>
      <point x="80" y="713" type="line"/>
      <point x="95" y="147" type="line"/>
    </contour>
    <contour>
      <point x="189" y="29" type="line"/>
      <point x="128" y="90" type="line"/>
      <point x="67" y="29" type="line"/>
      <point x="128" y="-32" type="line"/>
    </contour>
  </outline>
</glyph>
<glyph name="ampersand" format="1">
  <advance width="820"/>
  <unicode hex="0026"/>
  <outline>
    <contour>
      <point x="650" y="319" type="line"/>
      <point x="766" y="435" type="line"/>
      <point x="650" y="435" type="line"/>
      <point x="629" y="435" type="line"/>
      <point x="514" y="272" type="line"/>
      <point x="478" y="221" type="line"/>
      <point x="438" y="254" type="line"/>
      <point x="438" y="254" type="line"/>
      <point x="310" y="359" type="line"/>
      <point x="291" y="374" type="line"/>
      <point x="191" y="456" type="line"/>
      <point x="176" y="468" type="line"/>
      <point x="176" y="468"/>
      <point x="176" y="468"/>
      <point x="176" y="468" type="curve"/>
      <point x="156" y="488"/>
      <point x="145" y="513"/>
      <point x="145" y="542" type="curve" smooth="yes"/>
      <point x="145" y="595"/>
      <point x="189" y="639"/>
      <point x="248" y="650" type="curve" smooth="yes"/>
      <point x="256" y="651"/>
      <point x="265" y="652"/>
      <point x="274" y="652" type="curve" smooth="yes"/>
      <point x="296" y="652"/>
      <point x="317" y="647"/>
      <point x="335" y="639" type="curve"/>
      <point x="361" y="626"/>
      <point x="381" y="607"/>
      <point x="392" y="583" type="curve"/>
      <point x="397" y="600" type="line"/>
      <point x="419" y="670" type="line"/>
      <point x="419" y="671" type="line"/>
      <point x="426" y="693" type="line"/>
      <point x="405" y="680" type="line"/>
      <point x="396" y="685"/>
      <point x="387" y="690"/>
      <point x="378" y="694" type="curve" smooth="yes"/>
      <point x="351" y="706"/>
      <point x="320" y="713"/>
      <point x="288" y="713" type="curve" smooth="yes"/>
      <point x="178" y="713"/>
      <point x="89" y="635"/>
      <point x="89" y="538" type="curve" smooth="yes"/>
      <point x="89" y="492"/>
      <point x="109" y="450"/>
      <point x="141" y="419" type="curve"/>
      <point x="141" y="419" type="line"/>
      <point x="141" y="419" type="line"/>
      <point x="145" y="415"/>
      <point x="150" y="412"/>
      <point x="154" y="408" type="curve"/>
      <point x="163" y="400" type="line"/>
      <point x="91" y="363"/>
      <point x="42" y="293"/>
      <point x="42" y="213" type="curve" smooth="yes"/>
      <point x="42" y="94"/>
      <point x="150" y="-2"/>
      <point x="283" y="-2" type="curve" smooth="yes"/>
      <point x="354" y="-2"/>
      <point x="418" y="26"/>
      <point x="462" y="70" type="curve"/>
      <point x="462" y="70" type="line"/>
      <point x="462" y="70" type="line"/>
      <point x="475" y="83"/>
      <point x="485" y="97"/>
      <point x="495" y="112" type="curve"/>
      <point x="621" y="2" type="line"/>
      <point x="745" y="2" type="line"/>
      <point x="539" y="171" type="line"/>
    </contour>
    <contour>
      <point x="283" y="62" type="curve" smooth="yes"/>
      <point x="193" y="62"/>
      <point x="121" y="130"/>
      <point x="121" y="213" type="curve" smooth="yes"/>
      <point x="121" y="273"/>
      <point x="159" y="329"/>
      <point x="213" y="357" type="curve"/>
      <point x="434" y="165" type="line"/>
      <point x="435" y="164" type="line"/>
      <point x="434" y="161"/>
      <point x="433" y="158"/>
      <point x="431" y="155" type="curve"/>
      <point x="398" y="108" type="line"/>
      <point x="368" y="80"/>
      <point x="328" y="62"/>
    </contour>
  </outline>
</glyph>
<glyph name="quotesingle" format="1">
  <advance width="215"/>
  <unicode hex="0027"/>
  <outline>
    <contour>
      <point x="29" y="747" type="line" smooth="yes"/>
      <point x="29" y="747"/>
      <point x="53" y="709"/>
      <point x="53" y="674" type="curve" smooth="yes"/>
      <point x="53" y="639"/>
      <point x="29" y="583"/>
      <point x="29" y="583" type="curve" smooth="yes"/>
      <point x="29" y="583"/>
      <point x="133" y="652"/>
      <point x="177" y="747" type="curve"/>
    </contour>
  </outline>
</glyph>
<glyph name="asterisk" format="1">
  <advance width="178"/>
  <unicode hex="002A"/>
  <outline>
    <contour>
      <point x="134" y="816" type="line"/>
      <point x="134" y="816" type="line"/>
      <point x="48" y="816" type="line"/>
      <point x="48" y="816" type="line"/>
      <point x="48" y="730" type="line"/>
      <point x="48" y="730" type="line"/>
      <point x="134" y="730" type="line"/>
      <point x="134" y="730" type="line"/>
    </contour>
    <contour>
      <point x="91" y="773" type="line"/>
      <point x="91" y="773" type="line"/>
      <point x="91" y="773" type="line"/>
      <point x="91" y="773" type="line"/>
    </contour>
    <contour>
      <point x="152" y="772" type="line"/>
      <point x="91" y="833" type="line"/>
      <point x="91" y="833" type="line"/>
      <point x="30" y="772" type="line"/>
      <point x="30" y="772" type="line"/>
      <point x="91" y="711" type="line"/>
      <point x="91" y="711" type="line"/>
    </contour>
    <contour>
      <point x="91" y="772" type="move"/>
    </contour>
  </outline>
</glyph>
<glyph name="comma" format="1">
  <advance width="229"/>
  <unicode hex="002C"/>
  <outline>
    <contour>
      <point x="40" y="81" type="line" smooth="yes"/>
      <point x="40" y="81"/>
      <point x="64" y="43"/>
      <point x="64" y="8" type="curve" smooth="yes"/>
      <point x="64" y="-27"/>
      <point x="40" y="-83"/>
      <point x="40" y="-83" type="curve" smooth="yes"/>
      <point x="40" y="-83"/>
      <point x="144" y="-14"/>
      <point x="187" y="81" type="curve"/>
    </contour>
  </outline>
</glyph>
<glyph name="hyphen" format="1">
  <advance width="575"/>
  <unicode hex="002D"/>
  <outline>
    <contour>
      <point x="502" y="347" type="line"/>
      <point x="71" y="347" type="line"/>
      <point x="71" y="401" type="line"/>
      <point x="502" y="401" type="line"/>
    </contour>
  </outline>
</glyph>
<glyph name="period" format="1">
  <advance width="178"/>
  <unicode hex="002E"/>
  <outline>
    <contour>
      <point x="152" y="32" type="line"/>
      <point x="152" y="32" type="line"/>
      <point x="91" y="93" type="line"/>
      <point x="91" y="93" type="line"/>
      <point x="30" y="32" type="line"/>
      <point x="30" y="32" type="line"/>
      <point x="91" y="-29" type="line"/>
      <point x="91" y="-29" type="line"/>
    </contour>
    <contour>
      <point x="91" y="32" type="line"/>
      <point x="91" y="32" type="line"/>
      <point x="91" y="32" type="line"/>
      <point x="91" y="32" type="line"/>
    </contour>
  </outline>
</glyph>
<glyph name="slash" format="1">
  <advance width="298"/>
  <unicode hex="002F"/>
  <outline>
    <contour>
      <point x="84" y="0" type="line"/>
      <point x="299" y="713" type="line"/>
      <point x="210" y="713" type="line"/>
      <point x="5" y="0" type="line"/>
    </contour>
  </outline>
</glyph>
<glyph name="zero" format="1">
  <advance width="897"/>
  <unicode hex="0030"/>
  <outline>
    <contour>
      <point x="445" y="719" type="curve" smooth="yes"/>
      <point x="227" y="719"/>
      <point x="51" y="556"/>
      <point x="51" y="356" type="curve" smooth="yes"/>
      <point x="51" y="155"/>
      <point x="227" y="-7"/>
      <point x="445" y="-7" type="curve" smooth="yes"/>
      <point x="663" y="-7"/>
      <point x="839" y="155"/>
      <point x="839" y="356" type="curve" smooth="yes"/>
      <point x="839" y="556"/>
      <point x="663" y="719"/>
    </contour>
    <contour>
      <point x="445" y="56" type="curve" smooth="yes"/>
      <point x="267" y="56"/>
      <point x="123" y="204"/>
      <point x="123" y="361" type="curve" smooth="yes"/>
      <point x="123" y="518"/>
      <point x="267" y="666"/>
      <point x="445" y="666" type="curve" smooth="yes"/>
      <point x="623" y="666"/>
      <point x="767" y="518"/>
      <point x="767" y="361" type="curve" smooth="yes"/>
      <point x="767" y="204"/>
      <point x="623" y="56"/>
    </contour>
  </outline>
</glyph>
<glyph name="one" format="1">
  <advance width="350"/>
  <unicode hex="0031"/>
  <outline>
    <contour>
      <point x="249" y="690" type="line"/>
      <point x="270" y="711" type="line"/>
      <point x="181" y="711" type="line"/>
      <point x="25" y="507" type="line"/>
      <point x="120" y="507" type="line"/>
      <point x="173" y="590" type="line"/>
      <point x="173" y="60" type="line"/>
      <point x="112" y="-1" type="line"/>
      <point x="173" y="-1" type="line"/>
      <point x="249" y="-1" type="line"/>
      <point x="310" y="-1" type="line"/>
      <point x="249" y="60" type="line"/>
    </contour>
  </outline>
</glyph>
<glyph name="two" format="1">
  <advance width="567"/>
  <unicode hex="0032"/>
  <outline>
    <contour>
      <point x="461" y="67" type="line"/>
      <point x="458" y="65" type="line"/>
      <point x="162" y="65" type="line"/>
      <point x="170" y="79"/>
      <point x="377" y="403"/>
      <point x="396" y="434" type="curve" smooth="yes"/>
      <point x="414" y="464"/>
      <point x="434" y="512"/>
      <point x="434" y="548" type="curve" smooth="yes"/>
      <point x="434" y="644"/>
      <point x="334" y="711"/>
      <point x="225" y="711" type="curve" smooth="yes"/>
      <point x="181" y="711"/>
      <point x="141" y="699"/>
      <point x="108" y="678" type="curve"/>
      <point x="86" y="692" type="line"/>
      <point x="120" y="581" type="line"/>
      <point x="139" y="622"/>
      <point x="185" y="650"/>
      <point x="239" y="650" type="curve" smooth="yes"/>
      <point x="310" y="650"/>
      <point x="367" y="601"/>
      <point x="367" y="540" type="curve" smooth="yes"/>
      <point x="367" y="527"/>
      <point x="365" y="515"/>
      <point x="360" y="504" type="curve"/>
      <point x="45" y="-1" type="line"/>
      <point x="520" y="-1" type="line"/>
      <point x="520" y="126" type="line"/>
    </contour>
  </outline>
</glyph>
<glyph name="three" format="1">
  <advance width="611"/>
  <unicode hex="0033"/>
  <outline>
    <contour>
      <point x="451" y="396" type="curve" smooth="yes"/>
      <point x="423" y="412"/>
      <point x="391" y="423"/>
      <point x="357" y="427" type="curve"/>
      <point x="538" y="711" type="line"/>
      <point x="193" y="711" type="line"/>
      <point x="183" y="588" type="line"/>
      <point x="240" y="645" type="line"/>
      <point x="421" y="645" type="line"/>
      <point x="239" y="361" type="line"/>
      <point x="314" y="361" type="line"/>
      <point x="410" y="359"/>
      <point x="486" y="293"/>
      <point x="486" y="213" type="curve" smooth="yes"/>
      <point x="486" y="131"/>
      <point x="407" y="65"/>
      <point x="309" y="65" type="curve" smooth="yes"/>
      <point x="206" y="61"/>
      <point x="129" y="139"/>
      <point x="132" y="227" type="curve"/>
      <point x="96" y="146" type="line"/>
      <point x="45" y="33" type="line"/>
      <point x="128" y="90" type="line"/>
      <point x="128" y="90" type="line"/>
      <point x="171" y="35"/>
      <point x="242" y="0"/>
      <point x="323" y="0" type="curve" smooth="yes"/>
      <point x="455" y="0"/>
      <point x="563" y="96"/>
      <point x="563" y="215" type="curve" smooth="yes"/>
      <point x="563" y="291"/>
      <point x="518" y="358"/>
    </contour>
  </outline>
</glyph>
<glyph name="four" format="1">
  <advance width="608"/>
  <unicode hex="0034"/>
  <outline>
    <contour>
      <point x="445" y="190" type="line"/>
      <point x="506" y="190" type="line"/>
      <point x="563" y="133" type="line"/>
      <point x="563" y="318" type="line"/>
      <point x="502" y="256" type="line"/>
      <point x="445" y="256" type="line"/>
      <point x="445" y="691" type="line"/>
      <point x="465" y="711" type="line"/>
      <point x="370" y="711" type="line"/>
      <point x="370" y="711" type="line"/>
      <point x="370" y="711" type="line"/>
      <point x="45" y="190" type="line"/>
      <point x="370" y="190" type="line"/>
      <point x="370" y="60" type="line"/>
      <point x="308" y="-1" type="line"/>
      <point x="507" y="-1" type="line"/>
      <point x="445" y="60" type="line"/>
    </contour>
    <contour>
      <point x="162" y="256" type="line"/>
      <point x="370" y="590" type="line"/>
      <point x="370" y="256" type="line"/>
    </contour>
  </outline>
</glyph>
<glyph name="five" format="1">
  <advance width="622"/>
  <unicode hex="0035"/>
  <outline>
    <contour>
      <point x="129" y="711" type="line"/>
      <point x="129" y="536" type="line"/>
      <point x="130" y="479"/>
      <point x="127" y="362"/>
      <point x="129" y="362" type="curve" smooth="yes"/>
      <point x="223" y="361"/>
      <point x="486" y="382"/>
      <point x="486" y="213" type="curve" smooth="yes"/>
      <point x="486" y="131"/>
      <point x="407" y="65"/>
      <point x="309" y="65" type="curve" smooth="yes"/>
      <point x="211" y="65"/>
      <point x="131" y="131"/>
      <point x="131" y="213" type="curve" smooth="yes"/>
      <point x="131" y="217"/>
      <point x="132" y="221"/>
      <point x="132" y="227" type="curve"/>
      <point x="96" y="146" type="line"/>
      <point x="45" y="33" type="line"/>
      <point x="128" y="90" type="line"/>
      <point x="128" y="90" type="line"/>
      <point x="171" y="35"/>
      <point x="242" y="0"/>
      <point x="323" y="0" type="curve" smooth="yes"/>
      <point x="455" y="0"/>
      <point x="563" y="96"/>
      <point x="563" y="215" type="curve" smooth="yes"/>
      <point x="563" y="291"/>
      <point x="518" y="358"/>
      <point x="451" y="396" type="curve" smooth="yes"/>
      <point x="372" y="441"/>
      <point x="206" y="432"/>
      <point x="206" y="432" type="curve" smooth="yes"/>
      <point x="206" y="450"/>
      <point x="205" y="514"/>
      <point x="205" y="546" type="curve"/>
      <point x="205" y="645" type="line"/>
      <point x="466" y="645" type="line"/>
      <point x="523" y="588" type="line"/>
      <point x="512" y="711" type="line"/>
    </contour>
  </outline>
</glyph>
<glyph name="six" format="1">
  <advance width="582"/>
  <unicode hex="0036"/>
  <outline>
    <contour>
      <point x="289" y="424" type="curve" smooth="yes"/>
      <point x="228" y="424"/>
      <point x="173" y="404"/>
      <point x="131" y="371" type="curve"/>
      <point x="165" y="548"/>
      <point x="339" y="683"/>
      <point x="479" y="703" type="curve"/>
      <point x="467" y="705"/>
      <point x="454" y="706"/>
      <point x="442" y="706" type="curve" smooth="yes"/>
      <point x="256" y="706"/>
      <point x="45" y="507"/>
      <point x="45" y="261" type="curve" smooth="yes"/>
      <point x="45" y="236"/>
      <point x="46" y="213"/>
      <point x="49" y="189" type="curve" smooth="yes"/>
      <point x="49" y="188"/>
      <point x="50" y="186"/>
      <point x="50" y="185" type="curve" smooth="yes"/>
      <point x="50" y="185"/>
      <point x="50" y="185"/>
      <point x="50" y="185" type="curve" smooth="yes"/>
      <point x="50" y="184"/>
      <point x="50" y="183"/>
      <point x="50" y="182" type="curve" smooth="yes"/>
      <point x="52" y="172"/>
      <point x="54" y="161"/>
      <point x="58" y="151" type="curve" smooth="yes"/>
      <point x="75" y="96"/>
      <point x="117" y="50"/>
      <point x="172" y="23" type="curve" smooth="yes"/>
      <point x="206" y="6"/>
      <point x="246" y="-4"/>
      <point x="289" y="-4" type="curve" smooth="yes"/>
      <point x="309" y="-4"/>
      <point x="329" y="-1"/>
      <point x="347" y="3" type="curve" smooth="yes"/>
      <point x="452" y="26"/>
      <point x="529" y="110"/>
      <point x="529" y="210" type="curve" smooth="yes"/>
      <point x="529" y="328"/>
      <point x="422" y="424"/>
    </contour>
    <contour>
      <point x="450" y="198" type="curve" smooth="yes"/>
      <point x="444" y="131"/>
      <point x="391" y="77"/>
      <point x="322" y="63" type="curve" smooth="yes"/>
      <point x="311" y="61"/>
      <point x="300" y="60"/>
      <point x="289" y="60" type="curve" smooth="yes"/>
      <point x="213" y="60"/>
      <point x="150" y="108"/>
      <point x="132" y="174" type="curve" smooth="yes"/>
      <point x="129" y="185"/>
      <point x="127" y="198"/>
      <point x="127" y="210" type="curve" smooth="yes"/>
      <point x="127" y="250"/>
      <point x="144" y="286"/>
      <point x="170" y="312" type="curve" smooth="yes"/>
      <point x="200" y="342"/>
      <point x="242" y="361"/>
      <point x="289" y="361" type="curve" smooth="yes"/>
      <point x="378" y="361"/>
      <point x="450" y="293"/>
      <point x="450" y="210" type="curve" smooth="yes"/>
      <point x="450" y="206"/>
      <point x="450" y="202"/>
    </contour>
  </outline>
</glyph>
<glyph name="seven" format="1">
  <advance width="606"/>
  <unicode hex="0037"/>
  <outline>
    <contour>
      <point x="585" y="711" type="line"/>
      <point x="85" y="711" type="line"/>
      <point x="65" y="588" type="line"/>
      <point x="122" y="645" type="line"/>
      <point x="469" y="645" type="line"/>
      <point x="99" y="53" type="line"/>
      <point x="45" y="-1" type="line"/>
      <point x="202" y="-1" type="line"/>
      <point x="164" y="37" type="line"/>
    </contour>
  </outline>
</glyph>
<glyph name="eight" format="1">
  <advance width="572"/>
  <unicode hex="0038"/>
  <outline>
    <contour>
      <point x="410" y="397" type="curve"/>
      <point x="460" y="428"/>
      <point x="493" y="480"/>
      <point x="493" y="538" type="curve" smooth="yes"/>
      <point x="493" y="634"/>
      <point x="404" y="711"/>
      <point x="294" y="711" type="curve" smooth="yes"/>
      <point x="184" y="711"/>
      <point x="95" y="634"/>
      <point x="95" y="538" type="curve" smooth="yes"/>
      <point x="95" y="483"/>
      <point x="124" y="433"/>
      <point x="170" y="402" type="curve"/>
      <point x="96" y="365"/>
      <point x="45" y="294"/>
      <point x="45" y="213" type="curve" smooth="yes"/>
      <point x="45" y="94"/>
      <point x="153" y="-2"/>
      <point x="286" y="-2" type="curve" smooth="yes"/>
      <point x="418" y="-2"/>
      <point x="526" y="94"/>
      <point x="526" y="213" type="curve" smooth="yes"/>
      <point x="526" y="291"/>
      <point x="480" y="359"/>
    </contour>
    <contour>
      <point x="294" y="657" type="curve" smooth="yes"/>
      <point x="364" y="657"/>
      <point x="420" y="598"/>
      <point x="420" y="538" type="curve" smooth="yes"/>
      <point x="420" y="477"/>
      <point x="364" y="418"/>
      <point x="294" y="418" type="curve" smooth="yes"/>
      <point x="224" y="418"/>
      <point x="168" y="477"/>
      <point x="168" y="538" type="curve" smooth="yes"/>
      <point x="168" y="598"/>
      <point x="224" y="657"/>
    </contour>
    <contour>
      <point x="286" y="62" type="curve" smooth="yes"/>
      <point x="196" y="62"/>
      <point x="124" y="130"/>
      <point x="124" y="213" type="curve" smooth="yes"/>
      <point x="124" y="296"/>
      <point x="198" y="374"/>
      <point x="288" y="374" type="curve" smooth="yes"/>
      <point x="377" y="374"/>
      <point x="447" y="296"/>
      <point x="447" y="213" type="curve" smooth="yes"/>
      <point x="447" y="130"/>
      <point x="375" y="62"/>
    </contour>
  </outline>
</glyph>
<glyph name="nine" format="1">
  <advance width="515"/>
  <unicode hex="0039"/>
  <outline>
    <contour>
      <point x="436" y="585" type="curve" smooth="yes"/>
      <point x="417" y="638"/>
      <point x="373" y="681"/>
      <point x="314" y="700" type="curve" smooth="yes"/>
      <point x="292" y="707"/>
      <point x="269" y="711"/>
      <point x="244" y="711" type="curve" smooth="yes"/>
      <point x="134" y="711"/>
      <point x="45" y="634"/>
      <point x="45" y="538" type="curve" smooth="yes"/>
      <point x="45" y="443"/>
      <point x="134" y="366"/>
      <point x="244" y="366" type="curve" smooth="yes"/>
      <point x="297" y="366"/>
      <point x="344" y="383"/>
      <point x="380" y="412" type="curve"/>
      <point x="372" y="193"/>
      <point x="188" y="23"/>
      <point x="25" y="-1" type="curve"/>
      <point x="38" y="-2"/>
      <point x="50" y="-3"/>
      <point x="63" y="-3" type="curve" smooth="yes"/>
      <point x="249" y="-3"/>
      <point x="455" y="188"/>
      <point x="455" y="434" type="curve" smooth="yes"/>
      <point x="455" y="434"/>
      <point x="458" y="524"/>
    </contour>
    <contour>
      <point x="244" y="424" type="curve" smooth="yes"/>
      <point x="174" y="424"/>
      <point x="118" y="478"/>
      <point x="118" y="538" type="curve" smooth="yes"/>
      <point x="118" y="599"/>
      <point x="174" y="653"/>
      <point x="244" y="653" type="curve" smooth="yes"/>
      <point x="300" y="653"/>
      <point x="348" y="616"/>
      <point x="364" y="572" type="curve"/>
      <point x="366" y="563"/>
      <point x="368" y="555"/>
      <point x="370" y="546" type="curve"/>
      <point x="370" y="544"/>
      <point x="370" y="541"/>
      <point x="370" y="538" type="curve" smooth="yes"/>
      <point x="370" y="478"/>
      <point x="314" y="424"/>
    </contour>
  </outline>
</glyph>
<glyph name="colon" format="1">
  <advance width="194"/>
  <unicode hex="003A"/>
  <outline>
    <contour>
      <point x="162" y="32" type="line"/>
      <point x="162" y="32" type="line"/>
      <point x="101" y="93" type="line"/>
      <point x="101" y="93" type="line"/>
      <point x="40" y="32" type="line"/>
      <point x="40" y="32" type="line"/>
      <point x="101" y="-29" type="line"/>
      <point x="101" y="-29" type="line"/>
    </contour>
    <contour>
      <point x="101" y="32" type="line"/>
      <point x="101" y="32" type="line"/>
      <point x="101" y="32" type="line"/>
      <point x="101" y="32" type="line"/>
    </contour>
    <contour>
      <point x="162" y="373" type="line"/>
      <point x="162" y="373" type="line"/>
      <point x="101" y="435" type="line"/>
      <point x="101" y="435" type="line"/>
      <point x="40" y="373" type="line"/>
      <point x="40" y="373" type="line"/>
      <point x="101" y="312" type="line"/>
      <point x="101" y="312" type="line"/>
    </contour>
    <contour>
      <point x="101" y="373" type="line"/>
      <point x="101" y="373" type="line"/>
      <point x="101" y="373" type="line"/>
      <point x="101" y="373" type="line"/>
    </contour>
  </outline>
</glyph>
<glyph name="semicolon" format="1">
  <advance width="230"/>
  <unicode hex="003B"/>
  <outline>
    <contour>
      <point x="50" y="81" type="line" smooth="yes"/>
      <point x="50" y="81"/>
      <point x="74" y="43"/>
      <point x="74" y="8" type="curve" smooth="yes"/>
      <point x="74" y="-27"/>
      <point x="50" y="-83"/>
      <point x="50" y="-83" type="curve" smooth="yes"/>
      <point x="50" y="-83"/>
      <point x="154" y="-14"/>
      <point x="197" y="81" type="curve"/>
    </contour>
    <contour>
      <point x="185" y="373" type="line"/>
      <point x="185" y="373" type="line"/>
      <point x="124" y="435" type="line"/>
      <point x="124" y="435" type="line"/>
      <point x="62" y="373" type="line"/>
      <point x="62" y="373" type="line"/>
      <point x="124" y="312" type="line"/>
      <point x="124" y="312" type="line"/>
    </contour>
    <contour>
      <point x="124" y="373" type="line"/>
      <point x="124" y="373" type="line"/>
      <point x="124" y="373" type="line"/>
      <point x="124" y="373" type="line"/>
    </contour>
  </outline>
</glyph>
<glyph name="question" format="1">
  <advance width="406"/>
  <unicode hex="003F"/>
  <outline>
    <contour>
      <point x="167" y="713" type="curve" smooth="yes"/>
      <point x="123" y="713"/>
      <point x="83" y="701"/>
      <point x="49" y="679" type="curve"/>
      <point x="27" y="693" type="line"/>
      <point x="34" y="669" type="line"/>
      <point x="61" y="581" type="line"/>
      <point x="82" y="626"/>
      <point x="131" y="651"/>
      <point x="181" y="651" type="curve" smooth="yes"/>
      <point x="270" y="651"/>
      <point x="318" y="547"/>
      <point x="301" y="497" type="curve" smooth="yes"/>
      <point x="282" y="442"/>
      <point x="128" y="309"/>
      <point x="128" y="263" type="curve" smooth="yes"/>
      <point x="128" y="217"/>
      <point x="144" y="183"/>
      <point x="165" y="147" type="curve"/>
      <point x="241" y="148" type="line"/>
      <point x="211" y="181"/>
      <point x="193" y="207"/>
      <point x="193" y="259" type="curve" smooth="yes"/>
      <point x="193" y="305"/>
      <point x="339" y="434"/>
      <point x="354" y="468" type="curve" smooth="yes"/>
      <point x="402" y="580"/>
      <point x="322" y="713"/>
    </contour>
    <contour>
      <point x="139" y="30" type="line"/>
      <point x="200" y="-31" type="line"/>
      <point x="261" y="30" type="line"/>
      <point x="200" y="91" type="line"/>
    </contour>
  </outline>
</glyph>
<glyph name="C" format="1">
  <advance width="773"/>
  <unicode hex="0043"/>
  <outline>
    <contour>
      <point x="719" y="219" type="line"/>
      <point x="663" y="134"/>
      <point x="550" y="56"/>
      <point x="431" y="56" type="curve" smooth="yes"/>
      <point x="253" y="56"/>
      <point x="108" y="204"/>
      <point x="108" y="361" type="curve" smooth="yes"/>
      <point x="108" y="518"/>
      <point x="253" y="666"/>
      <point x="431" y="666" type="curve" smooth="yes"/>
      <point x="565" y="666"/>
      <point x="679" y="573"/>
      <point x="728" y="470" type="curve"/>
      <point x="718" y="655" type="line"/>
      <point x="654" y="655" type="line"/>
      <point x="590" y="695"/>
      <point x="513" y="719"/>
      <point x="431" y="719" type="curve" smooth="yes"/>
      <point x="213" y="719"/>
      <point x="36" y="556"/>
      <point x="36" y="356" type="curve" smooth="yes"/>
      <point x="36" y="155"/>
      <point x="213" y="-7"/>
      <point x="431" y="-7" type="curve" smooth="yes"/>
      <point x="517" y="-7"/>
      <point x="597" y="18"/>
      <point x="663" y="62" type="curve"/>
      <point x="718" y="62" type="line"/>
    </contour>
  </outline>
</glyph>
<glyph name="E" format="1">
  <advance width="630"/>
  <unicode hex="0045"/>
  <outline>
    <contour>
      <point x="188" y="67" type="line"/>
      <point x="188" y="357" type="line"/>
      <point x="291" y="357" type="line"/>
      <point x="320" y="328" type="line"/>
      <point x="320" y="357" type="line"/>
      <point x="320" y="369" type="line"/>
      <point x="320" y="389" type="line"/>
      <point x="320" y="401" type="line"/>
      <point x="320" y="430" type="line"/>
      <point x="291" y="401" type="line"/>
      <point x="188" y="401" type="line"/>
      <point x="188" y="647" type="line"/>
      <point x="433" y="647" type="line"/>
      <point x="490" y="590" type="line"/>
      <point x="480" y="713" type="line"/>
      <point x="249" y="713" type="line"/>
      <point x="188" y="713" type="line"/>
      <point x="112" y="713" type="line"/>
      <point x="51" y="713" type="line"/>
      <point x="112" y="652" type="line"/>
      <point x="112" y="62" type="line"/>
      <point x="51" y="1" type="line"/>
      <point x="112" y="1" type="line"/>
      <point x="188" y="1" type="line"/>
      <point x="249" y="1" type="line"/>
      <point x="577" y="1" type="line"/>
      <point x="587" y="128" type="line"/>
      <point x="526" y="67" type="line"/>
    </contour>
  </outline>
</glyph>
<glyph name="F" format="1">
  <advance width="570"/>
  <unicode hex="0046"/>
  <outline>
    <contour>
      <point x="188" y="713" type="line"/>
      <point x="112" y="713" type="line"/>
      <point x="51" y="713" type="line"/>
      <point x="112" y="652" type="line"/>
      <point x="112" y="62" type="line"/>
      <point x="51" y="1" type="line"/>
      <point x="112" y="1" type="line"/>
      <point x="188" y="1" type="line"/>
      <point x="249" y="1" type="line"/>
      <point x="188" y="62" type="line"/>
      <point x="188" y="357" type="line"/>
      <point x="291" y="357" type="line"/>
      <point x="320" y="328" type="line"/>
      <point x="320" y="357" type="line"/>
      <point x="320" y="369" type="line"/>
      <point x="320" y="389" type="line"/>
      <point x="320" y="401" type="line"/>
      <point x="320" y="430" type="line"/>
      <point x="291" y="401" type="line"/>
      <point x="188" y="401" type="line"/>
      <point x="188" y="647" type="line"/>
      <point x="433" y="647" type="line"/>
      <point x="490" y="590" type="line"/>
      <point x="480" y="713" type="line"/>
      <point x="249" y="713" type="line"/>
    </contour>
  </outline>
</glyph>
<glyph name="H" format="1">
  <advance width="816"/>
  <unicode hex="0048"/>
  <outline>
    <contour>
      <point x="756" y="713" type="line"/>
      <point x="695" y="713" type="line"/>
      <point x="619" y="713" type="line"/>
      <point x="558" y="713" type="line"/>
      <point x="619" y="652" type="line"/>
      <point x="619" y="401" type="line"/>
      <point x="188" y="401" type="line"/>
      <point x="188" y="652" type="line"/>
      <point x="249" y="713" type="line"/>
      <point x="188" y="713" type="line"/>
      <point x="112" y="713" type="line"/>
      <point x="51" y="713" type="line"/>
      <point x="112" y="652" type="line"/>
      <point x="112" y="62" type="line"/>
      <point x="51" y="1" type="line"/>
      <point x="112" y="1" type="line"/>
      <point x="188" y="1" type="line"/>
      <point x="249" y="1" type="line"/>
      <point x="188" y="62" type="line"/>
      <point x="188" y="357" type="line"/>
      <point x="619" y="357" type="line"/>
      <point x="619" y="62" type="line"/>
      <point x="558" y="1" type="line"/>
      <point x="619" y="1" type="line"/>
      <point x="695" y="1" type="line"/>
      <point x="756" y="1" type="line"/>
      <point x="695" y="62" type="line"/>
      <point x="695" y="652" type="line"/>
    </contour>
  </outline>
</glyph>
<glyph name="I" format="1">
  <advance width="305"/>
  <unicode hex="0049"/>
  <outline>
    <contour>
      <point x="188" y="652" type="line"/>
      <point x="249" y="713" type="line"/>
      <point x="188" y="713" type="line"/>
      <point x="112" y="713" type="line"/>
      <point x="51" y="713" type="line"/>
      <point x="112" y="652" type="line"/>
      <point x="112" y="62" type="line"/>
      <point x="51" y="1" type="line"/>
      <point x="112" y="1" type="line"/>
      <point x="188" y="1" type="line"/>
      <point x="249" y="1" type="line"/>
      <point x="188" y="62" type="line"/>
    </contour>
  </outline>
</glyph>
<glyph name="O" format="1">
  <advance width="858"/>
  <unicode hex="004F"/>
  <outline>
    <contour>
      <point x="425" y="719" type="curve" smooth="yes"/>
      <point x="207" y="719"/>
      <point x="31" y="556"/>
      <point x="31" y="356" type="curve" smooth="yes"/>
      <point x="31" y="155"/>
      <point x="207" y="-7"/>
      <point x="425" y="-7" type="curve" smooth="yes"/>
      <point x="643" y="-7"/>
      <point x="819" y="155"/>
      <point x="819" y="356" type="curve" smooth="yes"/>
      <point x="819" y="556"/>
      <point x="643" y="719"/>
    </contour>
    <contour>
      <point x="425" y="56" type="curve" smooth="yes"/>
      <point x="247" y="56"/>
      <point x="103" y="204"/>
      <point x="103" y="361" type="curve" smooth="yes"/>
      <point x="103" y="518"/>
      <point x="247" y="666"/>
      <point x="425" y="666" type="curve" smooth="yes"/>
      <point x="603" y="666"/>
      <point x="747" y="518"/>
      <point x="747" y="361" type="curve" smooth="yes"/>
      <point x="747" y="204"/>
      <point x="603" y="56"/>
    </contour>
  </outline>
</glyph>
<glyph name="Q" format="1">
  <advance width="892"/>
  <unicode hex="0051"/>
  <outline>
    <contour>
      <point x="839" y="355" type="curve" smooth="yes"/>
      <point x="839" y="556"/>
      <point x="663" y="718"/>
      <point x="445" y="718" type="curve" smooth="yes"/>
      <point x="227" y="718"/>
      <point x="51" y="556"/>
      <point x="51" y="355" type="curve" smooth="yes"/>
      <point x="51" y="155"/>
      <point x="227" y="-8"/>
      <point x="445" y="-8" type="curve" smooth="yes"/>
      <point x="472" y="-8"/>
      <point x="499" y="-6"/>
      <point x="525" y="-1" type="curve"/>
      <point x="583" y="-79" type="line"/>
      <point x="785" y="-79" type="line"/>
      <point x="625" y="32" type="line"/>
      <point x="752" y="92"/>
      <point x="839" y="214"/>
    </contour>
    <contour>
      <point x="445" y="56" type="curve" smooth="yes"/>
      <point x="267" y="56"/>
      <point x="123" y="203"/>
      <point x="123" y="360" type="curve" smooth="yes"/>
      <point x="123" y="517"/>
      <point x="267" y="665"/>
      <point x="445" y="665" type="curve" smooth="yes"/>
      <point x="623" y="665"/>
      <point x="767" y="517"/>
      <point x="767" y="360" type="curve" smooth="yes"/>
      <point x="767" y="240"/>
      <point x="683" y="125"/>
      <point x="563" y="78" type="curve"/>
      <point x="531" y="104"/>
      <point x="465" y="151"/>
      <point x="413" y="151" type="curve"/>
      <point x="482" y="58" type="line"/>
      <point x="470" y="56"/>
      <point x="457" y="56"/>
    </contour>
  </outline>
</glyph>
<glyph name="R" format="1">
  <advance width="632"/>
  <unicode hex="0052"/>
  <outline>
    <contour>
      <point x="163" y="404" type="line"/>
      <point x="163" y="404"/>
      <point x="163" y="404"/>
      <point x="163" y="404" type="curve"/>
      <point x="163" y="404"/>
      <point x="163" y="404"/>
      <point x="163" y="404" type="curve"/>
      <point x="537" y="1" type="line"/>
      <point x="661" y="1" type="line"/>
      <point x="302" y="339" type="line"/>
      <point x="302" y="339"/>
      <point x="302" y="339"/>
      <point x="301" y="340" type="curve"/>
      <point x="308" y="339"/>
      <point x="314" y="339"/>
      <point x="321" y="339" type="curve" smooth="yes"/>
      <point x="437" y="339"/>
      <point x="531" y="425"/>
      <point x="531" y="531" type="curve" smooth="yes"/>
      <point x="531" y="637"/>
      <point x="437" y="723"/>
      <point x="321" y="723" type="curve" smooth="yes"/>
      <point x="258" y="723"/>
      <point x="202" y="698"/>
      <point x="163" y="658" type="curve"/>
      <point x="163" y="672" type="line"/>
      <point x="204" y="713" type="line"/>
      <point x="163" y="713" type="line"/>
      <point x="143" y="713" type="line"/>
      <point x="88" y="713" type="line"/>
      <point x="26" y="713" type="line"/>
      <point x="88" y="652" type="line"/>
      <point x="88" y="62" type="line"/>
      <point x="26" y="1" type="line"/>
      <point x="88" y="1" type="line"/>
      <point x="163" y="1" type="line"/>
      <point x="225" y="1" type="line"/>
      <point x="163" y="62" type="line"/>
      <point x="163" y="404" type="line"/>
    </contour>
    <contour>
      <point x="153" y="531" type="curve" smooth="yes"/>
      <point x="153" y="605"/>
      <point x="222" y="665"/>
      <point x="307" y="665" type="curve" smooth="yes"/>
      <point x="307" y="665"/>
      <point x="308" y="665"/>
      <point x="308" y="665" type="curve" smooth="yes"/>
      <point x="308" y="665"/>
      <point x="309" y="665"/>
      <point x="309" y="665" type="curve" smooth="yes"/>
      <point x="393" y="665"/>
      <point x="461" y="605"/>
      <point x="461" y="531" type="curve" smooth="yes"/>
      <point x="461" y="457"/>
      <point x="393" y="397"/>
      <point x="309" y="397" type="curve" smooth="yes"/>
      <point x="309" y="397"/>
      <point x="308" y="397"/>
      <point x="308" y="397" type="curve" smooth="yes"/>
      <point x="308" y="397"/>
      <point x="307" y="397"/>
      <point x="307" y="397" type="curve" smooth="yes"/>
      <point x="222" y="397"/>
      <point x="153" y="457"/>
    </contour>
  </outline>
</glyph>
<glyph name="T" format="1">
  <advance width="644"/>
  <unicode hex="0054"/>
  <outline>
    <contour>
      <point x="333" y="713" type="line"/>
      <point x="293" y="713" type="line"/>
      <point x="275" y="713" type="line"/>
      <point x="41" y="713" type="line"/>
      <point x="31" y="590" type="line"/>
      <point x="88" y="647" type="line"/>
      <point x="275" y="647" type="line"/>
      <point x="275" y="62" type="line"/>
      <point x="214" y="1" type="line"/>
      <point x="275" y="1" type="line"/>
      <point x="351" y="1" type="line"/>
      <point x="412" y="1" type="line"/>
      <point x="351" y="62" type="line"/>
      <point x="351" y="647" type="line"/>
      <point x="538" y="647" type="line"/>
      <point x="595" y="590" type="line"/>
      <point x="585" y="713" type="line"/>
      <point x="351" y="713" type="line"/>
    </contour>
  </outline>
</glyph>
<glyph name="V" format="1">
  <advance width="823"/>
  <unicode hex="0056"/>
  <outline>
    <contour>
      <point x="712" y="713" type="line"/>
      <point x="641" y="713" type="line"/>
      <point x="636" y="713" type="line"/>
      <point x="575" y="713" type="line"/>
      <point x="618" y="669" type="line"/>
      <point x="412" y="164" type="line"/>
      <point x="206" y="669" type="line"/>
      <point x="249" y="713" type="line"/>
      <point x="188" y="713" type="line"/>
      <point x="183" y="713" type="line"/>
      <point x="112" y="713" type="line"/>
      <point x="51" y="713" type="line"/>
      <point x="155" y="609" type="line"/>
      <point x="375" y="73" type="line"/>
      <point x="412" y="-16" type="line"/>
      <point x="449" y="73" type="line"/>
      <point x="669" y="609" type="line"/>
      <point x="773" y="713" type="line"/>
    </contour>
  </outline>
</glyph>
<glyph name="Y" format="1">
  <advance width="708"/>
  <unicode hex="0059"/>
  <outline>
    <contour>
      <point x="587" y="713" type="line"/>
      <point x="556" y="713" type="line"/>
      <point x="556" y="713" type="line"/>
      <point x="495" y="713" type="line"/>
      <point x="532" y="676" type="line"/>
      <point x="350" y="445" type="line"/>
      <point x="167" y="675" type="line"/>
      <point x="204" y="713" type="line"/>
      <point x="143" y="713" type="line"/>
      <point x="143" y="713" type="line"/>
      <point x="112" y="713" type="line"/>
      <point x="68" y="713" type="line"/>
      <point x="51" y="713" type="line"/>
      <point x="96" y="667" type="line"/>
      <point x="312" y="384" type="line"/>
      <point x="312" y="384" type="line"/>
      <point x="312" y="267" type="line"/>
      <point x="312" y="62" type="line"/>
      <point x="251" y="1" type="line"/>
      <point x="312" y="1" type="line"/>
      <point x="387" y="1" type="line"/>
      <point x="449" y="1" type="line"/>
      <point x="387" y="62" type="line"/>
      <point x="387" y="267" type="line"/>
      <point x="387" y="384" type="line"/>
      <point x="387" y="384" type="line"/>
      <point x="603" y="667" type="line"/>
      <point x="648" y="713" type="line"/>
      <point x="631" y="713" type="line"/>
    </contour>
  </outline>
</glyph>
<glyph name="Z" format="1">
  <advance width="601"/>
  <unicode hex="005A"/>
  <outline>
    <contour>
      <point x="495" y="713" type="line"/>
      <point x="495" y="712" type="line"/>
      <point x="495" y="713" type="line"/>
      <point x="353" y="713" type="line"/>
      <point x="292" y="713" type="line"/>
      <point x="61" y="713" type="line"/>
      <point x="51" y="590" type="line"/>
      <point x="108" y="647" type="line"/>
      <point x="454" y="647" type="line"/>
      <point x="51" y="1" type="line"/>
      <point x="126" y="1" type="line"/>
      <point x="515" y="1" type="line"/>
      <point x="526" y="128" type="line"/>
      <point x="464" y="67" type="line"/>
      <point x="168" y="67" type="line"/>
      <point x="571" y="713" type="line"/>
    </contour>
  </outline>
</glyph>
<glyph name="backslash" format="1">
  <advance width="298"/>
  <unicode hex="005C"/>
  <outline>
    <contour>
      <point x="220" y="0" type="line"/>
      <point x="5" y="713" type="line"/>
      <point x="94" y="713" type="line"/>
      <point x="299" y="0" type="line"/>
    </contour>
  </outline>
</glyph>
<glyph name="underscore" format="1">
  <advance width="575"/>
  <unicode hex="005F"/>
  <outline>
    <contour>
      <point x="502" y="-93" type="line"/>
      <point x="71" y="-93" type="line"/>
      <point x="71" y="-49" type="line"/>
      <point x="502" y="-49" type="line"/>
    </contour>
  </outline>
</glyph>
<glyph name="a" format="1">
  <advance width="827"/>
  <unicode hex="0061"/>
  <outline>
    <contour>
      <point x="795" y="1" type="line"/>
      <point x="729" y="68" type="line"/>
      <point x="729" y="68" type="line"/>
      <point x="409" y="748" type="line"/>
      <point x="88" y="68" type="line"/>
      <point x="88" y="68" type="line"/>
      <point x="22" y="1" type="line"/>
      <point x="220" y="1" type="line"/>
      <point x="176" y="45" type="line"/>
      <point x="301" y="357" type="line"/>
      <point x="516" y="357" type="line"/>
      <point x="641" y="45" type="line"/>
      <point x="597" y="1" type="line"/>
    </contour>
    <contour>
      <point x="319" y="400" type="line"/>
      <point x="409" y="625" type="line"/>
      <point x="499" y="400" type="line"/>
    </contour>
  </outline>
</glyph>
<glyph name="b" format="1">
  <advance width="656"/>
  <unicode hex="0062"/>
  <outline>
    <contour>
      <point x="173" y="672" type="line"/>
      <point x="214" y="713" type="line"/>
      <point x="173" y="713" type="line"/>
      <point x="153" y="713" type="line"/>
      <point x="98" y="713" type="line"/>
      <point x="36" y="713" type="line"/>
      <point x="98" y="652" type="line"/>
      <point x="98" y="62" type="line"/>
      <point x="36" y="1" type="line"/>
      <point x="98" y="1" type="line"/>
      <point x="153" y="1" type="line"/>
      <point x="173" y="1" type="line"/>
      <point x="214" y="1" type="line"/>
      <point x="173" y="42" type="line"/>
    </contour>
    <contour>
      <point x="405" y="424" type="curve"/>
      <point x="457" y="451"/>
      <point x="492" y="501"/>
      <point x="492" y="558" type="curve" smooth="yes"/>
      <point x="492" y="644"/>
      <point x="414" y="713"/>
      <point x="318" y="713" type="curve" smooth="yes"/>
      <point x="262" y="713"/>
      <point x="212" y="689"/>
      <point x="180" y="652" type="curve"/>
      <point x="206" y="668"/>
      <point x="238" y="678"/>
      <point x="272" y="678" type="curve" smooth="yes"/>
      <point x="357" y="678"/>
      <point x="426" y="619"/>
      <point x="426" y="547" type="curve" smooth="yes"/>
      <point x="426" y="477"/>
      <point x="363" y="420"/>
      <point x="282" y="416" type="curve"/>
      <point x="282" y="407" type="line"/>
      <point x="282" y="403" type="line"/>
      <point x="282" y="395" type="line"/>
      <point x="301" y="400"/>
      <point x="321" y="403"/>
      <point x="341" y="403" type="curve" smooth="yes"/>
      <point x="457" y="403"/>
      <point x="550" y="322"/>
      <point x="550" y="223" type="curve" smooth="yes"/>
      <point x="550" y="124"/>
      <point x="457" y="44"/>
      <point x="341" y="44" type="curve" smooth="yes"/>
      <point x="284" y="44"/>
      <point x="233" y="64"/>
      <point x="195" y="95" type="curve"/>
      <point x="239" y="43"/>
      <point x="310" y="9"/>
      <point x="391" y="9" type="curve" smooth="yes"/>
      <point x="525" y="9"/>
      <point x="633" y="102"/>
      <point x="633" y="217" type="curve" smooth="yes"/>
      <point x="633" y="328"/>
      <point x="532" y="418"/>
    </contour>
  </outline>
</glyph>
<glyph name="g" format="1">
  <advance width="833"/>
  <unicode hex="0067"/>
  <outline>
    <contour>
      <point x="636" y="283" type="line"/>
      <point x="698" y="222" type="line"/>
      <point x="698" y="185" type="line"/>
      <point x="639" y="119"/>
      <point x="548" y="56"/>
      <point x="445" y="56" type="curve" smooth="yes"/>
      <point x="267" y="56"/>
      <point x="123" y="204"/>
      <point x="123" y="361" type="curve" smooth="yes"/>
      <point x="123" y="518"/>
      <point x="267" y="666"/>
      <point x="445" y="666" type="curve" smooth="yes"/>
      <point x="579" y="666"/>
      <point x="694" y="573"/>
      <point x="743" y="470" type="curve"/>
      <point x="732" y="655" type="line"/>
      <point x="668" y="655" type="line"/>
      <point x="605" y="695"/>
      <point x="528" y="719"/>
      <point x="445" y="719" type="curve" smooth="yes"/>
      <point x="227" y="719"/>
      <point x="51" y="556"/>
      <point x="51" y="356" type="curve" smooth="yes"/>
      <point x="51" y="155"/>
      <point x="227" y="-7"/>
      <point x="445" y="-7" type="curve" smooth="yes"/>
      <point x="542" y="-7"/>
      <point x="630" y="25"/>
      <point x="699" y="78" type="curve"/>
      <point x="765" y="78" type="line"/>
      <point x="765" y="227" type="line"/>
      <point x="773" y="283" type="line"/>
      <point x="698" y="283" type="line"/>
    </contour>
  </outline>
</glyph>
<glyph name="j" format="1">
  <advance width="673"/>
  <unicode hex="006A"/>
  <outline>
    <contour>
      <point x="492" y="713" type="line"/>
      <point x="431" y="713" type="line"/>
      <point x="492" y="652" type="line"/>
      <point x="492" y="215" type="line"/>
      <point x="492" y="133"/>
      <point x="413" y="67"/>
      <point x="315" y="67" type="curve" smooth="yes"/>
      <point x="217" y="67"/>
      <point x="137" y="133"/>
      <point x="137" y="215" type="curve" smooth="yes"/>
      <point x="137" y="217"/>
      <point x="137" y="220"/>
      <point x="138" y="222" type="curve" smooth="yes"/>
      <point x="138" y="223"/>
      <point x="138" y="225"/>
      <point x="138" y="226" type="curve"/>
      <point x="138" y="229" type="line"/>
      <point x="102" y="148" type="line"/>
      <point x="51" y="35" type="line"/>
      <point x="134" y="92" type="line"/>
      <point x="134" y="92" type="line"/>
      <point x="177" y="37"/>
      <point x="248" y="2"/>
      <point x="329" y="2" type="curve" smooth="yes"/>
      <point x="386" y="2"/>
      <point x="439" y="20"/>
      <point x="480" y="50" type="curve" smooth="yes"/>
      <point x="484" y="53"/>
      <point x="489" y="56"/>
      <point x="492" y="60" type="curve" smooth="yes"/>
      <point x="535" y="95"/>
      <point x="563" y="145"/>
      <point x="568" y="200" type="curve"/>
      <point x="568" y="652" type="line"/>
      <point x="629" y="713" type="line"/>
      <point x="568" y="713" type="line"/>
    </contour>
  </outline>
</glyph>
<glyph name="k" format="1">
  <advance width="692"/>
  <unicode hex="006B"/>
  <outline>
    <contour>
      <point x="431" y="597" type="line"/>
      <point x="547" y="713" type="line"/>
      <point x="431" y="713" type="line"/>
      <point x="431" y="713" type="line"/>
      <point x="410" y="713" type="line"/>
      <point x="188" y="394" type="line"/>
      <point x="188" y="652" type="line"/>
      <point x="249" y="713" type="line"/>
      <point x="188" y="713" type="line"/>
      <point x="188" y="713" type="line"/>
      <point x="112" y="713" type="line"/>
      <point x="51" y="713" type="line"/>
      <point x="112" y="652" type="line"/>
      <point x="112" y="62" type="line"/>
      <point x="51" y="1" type="line"/>
      <point x="112" y="1" type="line"/>
      <point x="188" y="1" type="line"/>
      <point x="249" y="1" type="line"/>
      <point x="188" y="62" type="line"/>
      <point x="188" y="382" type="line"/>
      <point x="188" y="382"/>
      <point x="188" y="382"/>
      <point x="188" y="382" type="curve"/>
      <point x="562" y="1" type="line"/>
      <point x="686" y="1" type="line"/>
      <point x="263" y="394" type="line"/>
    </contour>
  </outline>
</glyph>
<glyph name="l" format="1">
  <advance width="653"/>
  <unicode hex="006C"/>
  <outline>
    <contour>
      <point x="188" y="67" type="line"/>
      <point x="188" y="652" type="line"/>
      <point x="249" y="713" type="line"/>
      <point x="188" y="713" type="line"/>
      <point x="112" y="713" type="line"/>
      <point x="51" y="713" type="line"/>
      <point x="112" y="652" type="line"/>
      <point x="112" y="62" type="line"/>
      <point x="51" y="1" type="line"/>
      <point x="112" y="1" type="line"/>
      <point x="188" y="1" type="line"/>
      <point x="249" y="1" type="line"/>
      <point x="577" y="1" type="line"/>
      <point x="587" y="128" type="line"/>
      <point x="526" y="67" type="line"/>
    </contour>
  </outline>
</glyph>
<glyph name="m" format="1">
  <advance width="985"/>
  <unicode hex="006D"/>
  <outline>
    <contour>
      <point x="802" y="665" type="line"/>
      <point x="802" y="665" type="line"/>
      <point x="859" y="713" type="line"/>
      <point x="752" y="713" type="line"/>
      <point x="490" y="194" type="line"/>
      <point x="228" y="713" type="line"/>
      <point x="121" y="713" type="line"/>
      <point x="178" y="665" type="line"/>
      <point x="178" y="665" type="line"/>
      <point x="106" y="56" type="line"/>
      <point x="51" y="1" type="line"/>
      <point x="100" y="1" type="line"/>
      <point x="112" y="1" type="line"/>
      <point x="188" y="1" type="line"/>
      <point x="249" y="1" type="line"/>
      <point x="192" y="58" type="line"/>
      <point x="228" y="576" type="line"/>
      <point x="228" y="576" type="line"/>
      <point x="490" y="17" type="line"/>
      <point x="752" y="576" type="line"/>
      <point x="752" y="576" type="line"/>
      <point x="788" y="58" type="line"/>
      <point x="731" y="1" type="line"/>
      <point x="792" y="1" type="line"/>
      <point x="867" y="1" type="line"/>
      <point x="880" y="1" type="line"/>
      <point x="929" y="1" type="line"/>
      <point x="873" y="56" type="line"/>
    </contour>
  </outline>
</glyph>
<glyph name="n" format="1">
  <advance width="749"/>
  <unicode hex="006E"/>
  <outline>
    <contour>
      <point x="705" y="713" type="line"/>
      <point x="643" y="713" type="line"/>
      <point x="568" y="713" type="line"/>
      <point x="506" y="713" type="line"/>
      <point x="568" y="651" type="line"/>
      <point x="568" y="123" type="line"/>
      <point x="109" y="713" type="line"/>
      <point x="-3" y="713" type="line"/>
      <point x="92" y="615" type="line"/>
      <point x="92" y="60" type="line"/>
      <point x="31" y="-2" type="line"/>
      <point x="92" y="-2" type="line"/>
      <point x="168" y="-2" type="line"/>
      <point x="230" y="-2" type="line"/>
      <point x="168" y="60" type="line"/>
      <point x="168" y="528" type="line"/>
      <point x="590" y="-2" type="line"/>
      <point x="705" y="-2" type="line"/>
      <point x="643" y="60" type="line"/>
      <point x="643" y="651" type="line"/>
    </contour>
  </outline>
</glyph>
<glyph name="p" format="1">
  <advance width="591"/>
  <unicode hex="0070"/>
  <outline>
    <contour>
      <point x="327" y="719" type="curve" smooth="yes"/>
      <point x="267" y="719"/>
      <point x="213" y="697"/>
      <point x="172" y="662" type="curve"/>
      <point x="172" y="672" type="line"/>
      <point x="213" y="713" type="line"/>
      <point x="172" y="713" type="line"/>
      <point x="152" y="713" type="line"/>
      <point x="97" y="713" type="line"/>
      <point x="35" y="713" type="line"/>
      <point x="97" y="652" type="line"/>
      <point x="97" y="62" type="line"/>
      <point x="35" y="1" type="line"/>
      <point x="97" y="1" type="line"/>
      <point x="172" y="1" type="line"/>
      <point x="234" y="1" type="line"/>
      <point x="172" y="62" type="line"/>
      <point x="172" y="361" type="line"/>
      <point x="213" y="326"/>
      <point x="267" y="304"/>
      <point x="327" y="304" type="curve" smooth="yes"/>
      <point x="451" y="304"/>
      <point x="552" y="397"/>
      <point x="552" y="512" type="curve" smooth="yes"/>
      <point x="552" y="626"/>
      <point x="451" y="719"/>
    </contour>
    <contour>
      <point x="327" y="363" type="curve" smooth="yes"/>
      <point x="324" y="363"/>
      <point x="321" y="363"/>
      <point x="318" y="363" type="curve" smooth="yes"/>
      <point x="317" y="363"/>
      <point x="315" y="363"/>
      <point x="314" y="363" type="curve" smooth="yes"/>
      <point x="314" y="363"/>
      <point x="314" y="363"/>
      <point x="314" y="363" type="curve" smooth="yes"/>
      <point x="225" y="369"/>
      <point x="155" y="433"/>
      <point x="155" y="512" type="curve" smooth="yes"/>
      <point x="155" y="592"/>
      <point x="229" y="658"/>
      <point x="320" y="660" type="curve" smooth="yes"/>
      <point x="321" y="660"/>
      <point x="321" y="660"/>
      <point x="321" y="660" type="curve" smooth="yes"/>
      <point x="323" y="660"/>
      <point x="324" y="660"/>
      <point x="325" y="660" type="curve" smooth="yes"/>
      <point x="326" y="660"/>
      <point x="326" y="660"/>
      <point x="326" y="660" type="curve" smooth="yes"/>
      <point x="326" y="660"/>
      <point x="326" y="660"/>
      <point x="327" y="660" type="curve" smooth="yes"/>
      <point x="417" y="660"/>
      <point x="490" y="598"/>
      <point x="495" y="520" type="curve" smooth="yes"/>
      <point x="495" y="520"/>
      <point x="495" y="520"/>
      <point x="495" y="519" type="curve" smooth="yes"/>
      <point x="495" y="518"/>
      <point x="495" y="516"/>
      <point x="495" y="515" type="curve" smooth="yes"/>
      <point x="495" y="514"/>
      <point x="496" y="513"/>
      <point x="496" y="512" type="curve" smooth="yes"/>
      <point x="496" y="512"/>
      <point x="496" y="512"/>
      <point x="496" y="512" type="curve" smooth="yes"/>
      <point x="496" y="512"/>
      <point x="496" y="512"/>
      <point x="496" y="512" type="curve" smooth="yes"/>
      <point x="496" y="430"/>
      <point x="420" y="363"/>
    </contour>
    <contour>
      <point x="318" y="363" type="curve" smooth="yes"/>
      <point x="317" y="363"/>
      <point x="315" y="363"/>
      <point x="314" y="363" type="curve" smooth="yes"/>
      <point x="315" y="363"/>
      <point x="317" y="363"/>
    </contour>
    <contour>
      <point x="495" y="520" type="curve" smooth="yes"/>
      <point x="495" y="520"/>
      <point x="495" y="520"/>
      <point x="495" y="519" type="curve" smooth="yes"/>
      <point x="495" y="520"/>
      <point x="495" y="520"/>
    </contour>
    <contour>
      <point x="325" y="660" type="curve" smooth="yes"/>
      <point x="324" y="660"/>
      <point x="323" y="660"/>
      <point x="321" y="660" type="curve" smooth="yes"/>
      <point x="323" y="660"/>
      <point x="324" y="660"/>
      <point x="326" y="660" type="curve" smooth="yes"/>
      <point x="326" y="660"/>
      <point x="326" y="660"/>
    </contour>
    <contour>
      <point x="496" y="512" type="curve" smooth="yes"/>
      <point x="496" y="513"/>
      <point x="495" y="514"/>
      <point x="495" y="515" type="curve" smooth="yes"/>
      <point x="495" y="514"/>
      <point x="496" y="513"/>
      <point x="496" y="512" type="curve" smooth="yes"/>
      <point x="496" y="512"/>
      <point x="496" y="512"/>
    </contour>
  </outline>
</glyph>
<glyph name="s" format="1">
  <advance width="549"/>
  <unicode hex="0073"/>
  <outline>
    <contour>
      <point x="415" y="389" type="curve" smooth="yes"/>
      <point x="378" y="413"/>
      <point x="320" y="426"/>
      <point x="269" y="431" type="curve"/>
      <point x="198" y="438"/>
      <point x="140" y="480"/>
      <point x="140" y="542" type="curve" smooth="yes"/>
      <point x="140" y="603"/>
      <point x="198" y="652"/>
      <point x="269" y="652" type="curve" smooth="yes"/>
      <point x="318" y="652"/>
      <point x="367" y="627"/>
      <point x="387" y="583" type="curve"/>
      <point x="414" y="670" type="line"/>
      <point x="421" y="693" type="line"/>
      <point x="399" y="680" type="line"/>
      <point x="366" y="701"/>
      <point x="326" y="713"/>
      <point x="283" y="713" type="curve" smooth="yes"/>
      <point x="173" y="713"/>
      <point x="84" y="635"/>
      <point x="84" y="538" type="curve" smooth="yes"/>
      <point x="84" y="444"/>
      <point x="168" y="372"/>
      <point x="259" y="364" type="curve"/>
      <point x="363" y="355"/>
      <point x="439" y="297"/>
      <point x="439" y="215" type="curve" smooth="yes"/>
      <point x="439" y="133"/>
      <point x="359" y="67"/>
      <point x="261" y="67" type="curve" smooth="yes"/>
      <point x="165" y="67"/>
      <point x="84" y="135"/>
      <point x="85" y="229" type="curve"/>
      <point x="-3" y="35" type="line"/>
      <point x="80" y="92" type="line"/>
      <point x="80" y="92" type="line"/>
      <point x="124" y="37"/>
      <point x="195" y="2"/>
      <point x="275" y="2" type="curve" smooth="yes"/>
      <point x="408" y="2"/>
      <point x="515" y="98"/>
      <point x="515" y="216" type="curve" smooth="yes"/>
      <point x="515" y="293"/>
      <point x="481" y="346"/>
    </contour>
  </outline>
</glyph>
<glyph name="w" format="1">
  <advance width="1247"/>
  <unicode hex="0077"/>
  <outline>
    <contour>
      <point x="1159" y="713" type="line"/>
      <point x="1089" y="713" type="line"/>
      <point x="1084" y="713" type="line"/>
      <point x="1022" y="713" type="line"/>
      <point x="1066" y="669" type="line"/>
      <point x="860" y="164" type="line"/>
      <point x="636" y="730" type="line"/>
      <point x="412" y="164" type="line"/>
      <point x="206" y="669" type="line"/>
      <point x="249" y="713" type="line"/>
      <point x="188" y="713" type="line"/>
      <point x="183" y="713" type="line"/>
      <point x="112" y="713" type="line"/>
      <point x="51" y="713" type="line"/>
      <point x="155" y="609" type="line"/>
      <point x="375" y="73" type="line"/>
      <point x="412" y="-16" type="line"/>
      <point x="449" y="73" type="line"/>
      <point x="636" y="528" type="line"/>
      <point x="823" y="73" type="line"/>
      <point x="860" y="-16" type="line"/>
      <point x="896" y="73" type="line"/>
      <point x="1116" y="609" type="line"/>
      <point x="1221" y="713" type="line"/>
    </contour>
  </outline>
</glyph>
<glyph name="x" format="1">
  <advance width="649"/>
  <unicode hex="0078"/>
  <outline>
    <contour>
      <point x="364" y="388" type="line"/>
      <point x="538" y="667" type="line"/>
      <point x="584" y="713" type="line"/>
      <point x="567" y="713" type="line"/>
      <point x="522" y="713" type="line"/>
      <point x="492" y="713" type="line"/>
      <point x="491" y="713" type="line"/>
      <point x="430" y="713" type="line"/>
      <point x="468" y="676" type="line"/>
      <point x="326" y="449" type="line"/>
      <point x="185" y="675" type="line"/>
      <point x="222" y="713" type="line"/>
      <point x="161" y="713" type="line"/>
      <point x="161" y="713" type="line"/>
      <point x="130" y="713" type="line"/>
      <point x="86" y="713" type="line"/>
      <point x="69" y="713" type="line"/>
      <point x="114" y="667" type="line"/>
      <point x="288" y="388" type="line"/>
      <point x="80" y="55" type="line"/>
      <point x="26" y="1" type="line"/>
      <point x="47" y="1" type="line"/>
      <point x="88" y="1" type="line"/>
      <point x="120" y="1" type="line"/>
      <point x="120" y="1" type="line"/>
      <point x="181" y="1" type="line"/>
      <point x="145" y="37" type="line"/>
      <point x="326" y="328" type="line"/>
      <point x="507" y="39" type="line"/>
      <point x="469" y="1" type="line"/>
      <point x="530" y="1" type="line"/>
      <point x="530" y="1" type="line"/>
      <point x="530" y="1" type="line"/>
      <point x="565" y="1" type="line"/>
      <point x="606" y="1" type="line"/>
      <point x="626" y="1" type="line"/>
      <point x="572" y="55" type="line"/>
    </contour>
  </outline>
</glyph>
<glyph name="dieresis" format="1">
  <advance width="361"/>
  <unicode hex="00A8"/>
  <outline>
    <contour>
      <point x="332" y="822" type="line"/>
      <point x="271" y="883" type="line"/>
      <point x="271" y="883" type="line"/>
      <point x="210" y="822" type="line"/>
      <point x="210" y="822" type="line"/>
      <point x="271" y="761" type="line"/>
      <point x="271" y="761" type="line"/>
    </contour>
    <contour>
      <point x="152" y="822" type="line"/>
      <point x="91" y="883" type="line"/>
      <point x="91" y="883" type="line"/>
      <point x="30" y="822" type="line"/>
      <point x="30" y="822" type="line"/>
      <point x="91" y="761" type="line"/>
      <point x="91" y="761" type="line"/>
    </contour>
  </outline>
</glyph>
<glyph name="guillemotleft" format="1">
  <advance width="478"/>
  <unicode hex="00AB"/>
  <outline>
    <contour>
      <point x="275" y="577" type="line"/>
      <point x="191" y="577" type="line"/>
      <point x="-1" y="370" type="line"/>
      <point x="211" y="163" type="line"/>
      <point x="304" y="163" type="line"/>
      <point x="70" y="370" type="line"/>
    </contour>
    <contour>
      <point x="435" y="577" type="line"/>
      <point x="351" y="577" type="line"/>
      <point x="159" y="370" type="line"/>
      <point x="371" y="163" type="line"/>
      <point x="464" y="163" type="line"/>
      <point x="230" y="370" type="line"/>
    </contour>
  </outline>
</glyph>
<glyph name="guillemotright" format="1">
  <advance width="478"/>
  <unicode hex="00BB"/>
  <outline>
    <contour>
      <point x="188" y="577" type="line"/>
      <point x="272" y="577" type="line"/>
      <point x="464" y="370" type="line"/>
      <point x="252" y="163" type="line"/>
      <point x="159" y="163" type="line"/>
      <point x="393" y="370" type="line"/>
    </contour>
    <contour>
      <point x="28" y="577" type="line"/>
      <point x="112" y="577" type="line"/>
      <point x="304" y="370" type="line"/>
      <point x="92" y="163" type="line"/>
      <point x="-1" y="163" type="line"/>
      <point x="233" y="370" type="line"/>
    </contour>
  </outline>
</glyph>
<glyph name="Ccedilla" format="1">
  <advance width="773"/>
  <unicode hex="00C7"/>
  <outline>
    <contour>
      <point x="423" y="56" type="curve" smooth="yes"/>
      <point x="245" y="56"/>
      <point x="101" y="204"/>
      <point x="101" y="361" type="curve" smooth="yes"/>
      <point x="101" y="518"/>
      <point x="245" y="666"/>
      <point x="423" y="666" type="curve" smooth="yes"/>
      <point x="557" y="666"/>
      <point x="672" y="573"/>
      <point x="721" y="470" type="curve"/>
      <point x="710" y="655" type="line"/>
      <point x="646" y="655" type="line"/>
      <point x="583" y="696"/>
      <point x="506" y="719"/>
      <point x="423" y="719" type="curve" smooth="yes"/>
      <point x="205" y="719"/>
      <point x="29" y="557"/>
      <point x="29" y="356" type="curve" smooth="yes"/>
      <point x="29" y="184"/>
      <point x="159" y="39"/>
      <point x="334" y="2" type="curve"/>
      <point x="301" y="-43" type="line"/>
      <point x="258" y="-101" type="line"/>
      <point x="189" y="-195" type="line"/>
      <point x="241" y="-195"/>
      <point x="307" y="-148"/>
      <point x="339" y="-122" type="curve"/>
      <point x="401" y="-76" type="line"/>
      <point x="512" y="2" type="line"/>
      <point x="565" y="13"/>
      <point x="613" y="34"/>
      <point x="655" y="62" type="curve"/>
      <point x="710" y="62" type="line"/>
      <point x="711" y="219" type="line"/>
      <point x="656" y="134"/>
      <point x="542" y="56"/>
    </contour>
  </outline>
</glyph>
<glyph name="Eacute" format="1">
  <advance width="630"/>
  <unicode hex="00C9"/>
  <outline>
    <contour>
      <point x="269" y="867" type="line"/>
      <point x="269" y="867"/>
      <point x="293" y="839"/>
      <point x="293" y="804" type="curve" smooth="yes"/>
      <point x="293" y="769"/>
      <point x="239" y="733"/>
      <point x="239" y="733" type="curve"/>
      <point x="239" y="733"/>
      <point x="373" y="772"/>
      <point x="417" y="867" type="curve"/>
    </contour>
    <component base="E"/>
  </outline>
</glyph>
<glyph name="Ecircumflex" format="1">
  <advance width="630"/>
  <unicode hex="00CA"/>
  <outline>
    <contour>
      <point x="289" y="900" type="line"/>
      <point x="134" y="745" type="line"/>
      <point x="207" y="745" type="line"/>
      <point x="289" y="845" type="line"/>
      <point x="372" y="745" type="line"/>
      <point x="444" y="745" type="line"/>
    </contour>
    <component base="E"/>
  </outline>
</glyph>
<glyph name="Iacute" format="1">
  <advance width="305"/>
  <unicode hex="00CD"/>
  <outline>
    <contour>
      <point x="91" y="867" type="line"/>
      <point x="91" y="867"/>
      <point x="115" y="839"/>
      <point x="115" y="804" type="curve" smooth="yes"/>
      <point x="115" y="769"/>
      <point x="61" y="733"/>
      <point x="61" y="733" type="curve"/>
      <point x="61" y="733"/>
      <point x="195" y="772"/>
      <point x="239" y="867" type="curve"/>
    </contour>
    <component base="I"/>
  </outline>
</glyph>
<glyph name="Odieresis" format="1">
  <advance width="897"/>
  <unicode hex="00D6"/>
  <outline>
    <contour>
      <point x="582" y="822" type="line"/>
      <point x="521" y="883" type="line"/>
      <point x="521" y="883" type="line"/>
      <point x="460" y="822" type="line"/>
      <point x="460" y="822" type="line"/>
      <point x="521" y="761" type="line"/>
      <point x="521" y="761" type="line"/>
    </contour>
    <contour>
      <point x="402" y="822" type="line"/>
      <point x="341" y="883" type="line"/>
      <point x="341" y="883" type="line"/>
      <point x="280" y="822" type="line"/>
      <point x="280" y="822" type="line"/>
      <point x="341" y="761" type="line"/>
      <point x="341" y="761" type="line"/>
    </contour>
    <component base="O" xOffset="20"/>
  </outline>
</glyph>
<glyph name="Udieresis" format="1">
  <advance width="696"/>
  <unicode hex="00DC"/>
  <outline>
    <contour>
      <point x="500" y="822" type="line"/>
      <point x="439" y="883" type="line"/>
      <point x="439" y="883" type="line"/>
      <point x="378" y="822" type="line"/>
      <point x="378" y="822" type="line"/>
      <point x="439" y="761" type="line"/>
      <point x="439" y="761" type="line"/>
    </contour>
    <contour>
      <point x="320" y="822" type="line"/>
      <point x="259" y="883" type="line"/>
      <point x="259" y="883" type="line"/>
      <point x="198" y="822" type="line"/>
      <point x="198" y="822" type="line"/>
      <point x="259" y="761" type="line"/>
      <point x="259" y="761" type="line"/>
    </contour>
    <contour>
      <point x="652" y="713" type="line"/>
      <point x="591" y="713" type="line"/>
      <point x="591" y="713" type="line"/>
      <point x="516" y="713" type="line"/>
      <point x="516" y="713" type="line"/>
      <point x="454" y="713" type="line"/>
      <point x="516" y="652" type="line"/>
      <point x="516" y="372" type="line"/>
      <point x="516" y="215" type="line"/>
      <point x="516" y="132"/>
      <point x="442" y="65"/>
      <point x="352" y="65" type="curve" smooth="yes"/>
      <point x="261" y="65"/>
      <point x="188" y="132"/>
      <point x="188" y="215" type="curve"/>
      <point x="188" y="372" type="line"/>
      <point x="188" y="652" type="line"/>
      <point x="249" y="713" type="line"/>
      <point x="188" y="713" type="line"/>
      <point x="188" y="713" type="line"/>
      <point x="112" y="713" type="line"/>
      <point x="112" y="713" type="line"/>
      <point x="51" y="713" type="line"/>
      <point x="112" y="652" type="line"/>
      <point x="112" y="226" type="line"/>
      <point x="112" y="222"/>
      <point x="112" y="219"/>
      <point x="112" y="215" type="curve" smooth="yes"/>
      <point x="112" y="97"/>
      <point x="219" y="1"/>
      <point x="352" y="1" type="curve" smooth="yes"/>
      <point x="484" y="1"/>
      <point x="592" y="97"/>
      <point x="592" y="215" type="curve" smooth="yes"/>
      <point x="592" y="220"/>
      <point x="591" y="225"/>
      <point x="591" y="230" type="curve"/>
      <point x="591" y="652" type="line"/>
    </contour>
  </outline>
</glyph>
<glyph name="Yacute" format="1">
  <advance width="708"/>
  <unicode hex="00DD"/>
  <outline>
    <contour>
      <point x="309" y="867" type="line"/>
      <point x="309" y="867"/>
      <point x="333" y="839"/>
      <point x="333" y="804" type="curve" smooth="yes"/>
      <point x="333" y="769"/>
      <point x="279" y="733"/>
      <point x="279" y="733" type="curve"/>
      <point x="279" y="733"/>
      <point x="413" y="772"/>
      <point x="457" y="867" type="curve"/>
    </contour>
    <component base="Y"/>
  </outline>
</glyph>
<glyph name="agrave" format="1">
  <advance width="816"/>
  <unicode hex="00E0"/>
  <outline>
    <contour>
      <point x="795" y="1" type="line"/>
      <point x="729" y="68" type="line"/>
      <point x="729" y="68" type="line"/>
      <point x="409" y="748" type="line"/>
      <point x="88" y="68" type="line"/>
      <point x="88" y="68" type="line"/>
      <point x="22" y="1" type="line"/>
      <point x="220" y="1" type="line"/>
      <point x="176" y="45" type="line"/>
      <point x="301" y="357" type="line"/>
      <point x="516" y="357" type="line"/>
      <point x="641" y="45" type="line"/>
      <point x="597" y="1" type="line"/>
    </contour>
    <contour>
      <point x="319" y="400" type="line"/>
      <point x="409" y="625" type="line"/>
      <point x="499" y="400" type="line"/>
    </contour>
    <contour>
      <point x="453" y="804" type="move"/>
    </contour>
    <contour>
      <point x="477" y="867" type="line"/>
      <point x="477" y="867"/>
      <point x="453" y="839"/>
      <point x="453" y="804" type="curve" smooth="yes"/>
      <point x="453" y="769"/>
      <point x="507" y="733"/>
      <point x="507" y="733" type="curve"/>
      <point x="507" y="733"/>
      <point x="373" y="772"/>
      <point x="329" y="867" type="curve"/>
    </contour>
  </outline>
</glyph>
<glyph name="aacute" format="1">
  <advance width="870"/>
  <unicode hex="00E1"/>
  <outline>
    <contour>
      <point x="825" y="1" type="line"/>
      <point x="759" y="68" type="line"/>
      <point x="759" y="68" type="line"/>
      <point x="439" y="748" type="line"/>
      <point x="118" y="68" type="line"/>
      <point x="118" y="68" type="line"/>
      <point x="52" y="1" type="line"/>
      <point x="250" y="1" type="line"/>
      <point x="206" y="45" type="line"/>
      <point x="331" y="357" type="line"/>
      <point x="546" y="357" type="line"/>
      <point x="671" y="45" type="line"/>
      <point x="627" y="1" type="line"/>
    </contour>
    <contour>
      <point x="349" y="400" type="line"/>
      <point x="439" y="625" type="line"/>
      <point x="529" y="400" type="line"/>
    </contour>
    <contour>
      <point x="389" y="867" type="line"/>
      <point x="389" y="867"/>
      <point x="413" y="839"/>
      <point x="413" y="804" type="curve" smooth="yes"/>
      <point x="413" y="769"/>
      <point x="359" y="733"/>
      <point x="359" y="733" type="curve"/>
      <point x="359" y="733"/>
      <point x="493" y="772"/>
      <point x="537" y="867" type="curve"/>
    </contour>
    <contour>
      <point x="389" y="867" type="line"/>
      <point x="389" y="867"/>
      <point x="413" y="839"/>
      <point x="413" y="804" type="curve" smooth="yes"/>
      <point x="413" y="769"/>
      <point x="359" y="733"/>
      <point x="359" y="733" type="curve"/>
      <point x="359" y="733"/>
      <point x="493" y="772"/>
      <point x="537" y="867" type="curve"/>
    </contour>
    <contour>
      <point x="389" y="867" type="line"/>
      <point x="389" y="867"/>
      <point x="413" y="839"/>
      <point x="413" y="804" type="curve" smooth="yes"/>
      <point x="413" y="769"/>
      <point x="359" y="733"/>
      <point x="359" y="733" type="curve"/>
      <point x="359" y="733"/>
      <point x="493" y="772"/>
      <point x="537" y="867" type="curve"/>
    </contour>
  </outline>
</glyph>
<glyph name="aring" format="1">
  <advance width="870"/>
  <unicode hex="00E5"/>
  <outline>
    <contour>
      <point x="825" y="1" type="line"/>
      <point x="759" y="68" type="line"/>
      <point x="759" y="68" type="line"/>
      <point x="439" y="748" type="line"/>
      <point x="118" y="68" type="line"/>
      <point x="118" y="68" type="line"/>
      <point x="52" y="1" type="line"/>
      <point x="250" y="1" type="line"/>
      <point x="206" y="45" type="line"/>
      <point x="331" y="357" type="line"/>
      <point x="546" y="357" type="line"/>
      <point x="671" y="45" type="line"/>
      <point x="627" y="1" type="line"/>
    </contour>
    <contour>
      <point x="349" y="400" type="line"/>
      <point x="439" y="625" type="line"/>
      <point x="529" y="400" type="line"/>
    </contour>
  </outline>
</glyph>
<glyph name="egrave" format="1">
  <advance width="630"/>
  <unicode hex="00E8"/>
  <outline>
    <contour>
      <point x="327" y="867" type="line"/>
      <point x="327" y="867"/>
      <point x="303" y="839"/>
      <point x="303" y="804" type="curve" smooth="yes"/>
      <point x="303" y="769"/>
      <point x="357" y="733"/>
      <point x="357" y="733" type="curve"/>
      <point x="357" y="733"/>
      <point x="223" y="772"/>
      <point x="179" y="867" type="curve"/>
    </contour>
    <component base="E"/>
  </outline>
</glyph>
<glyph name="edieresis" format="1">
  <advance width="630"/>
  <unicode hex="00EB"/>
  <outline>
    <contour>
      <point x="412" y="822" type="line"/>
      <point x="351" y="883" type="line"/>
      <point x="351" y="883" type="line"/>
      <point x="290" y="822" type="line"/>
      <point x="290" y="822" type="line"/>
      <point x="351" y="761" type="line"/>
      <point x="351" y="761" type="line"/>
    </contour>
    <contour>
      <point x="232" y="822" type="line"/>
      <point x="171" y="883" type="line"/>
      <point x="171" y="883" type="line"/>
      <point x="110" y="822" type="line"/>
      <point x="110" y="822" type="line"/>
      <point x="171" y="761" type="line"/>
      <point x="171" y="761" type="line"/>
    </contour>
    <component base="E"/>
  </outline>
</glyph>
<glyph name="igrave" format="1">
  <advance width="305"/>
  <unicode hex="00EC"/>
  <outline>
    <contour>
      <point x="207" y="867" type="line"/>
      <point x="207" y="867"/>
      <point x="183" y="839"/>
      <point x="183" y="804" type="curve" smooth="yes"/>
      <point x="183" y="769"/>
      <point x="237" y="733"/>
      <point x="237" y="733" type="curve"/>
      <point x="237" y="733"/>
      <point x="103" y="772"/>
      <point x="59" y="867" type="curve"/>
    </contour>
    <component base="I"/>
  </outline>
</glyph>
<glyph name="icircumflex" format="1">
  <advance width="305"/>
  <unicode hex="00EE"/>
  <outline>
    <contour>
      <point x="148" y="900" type="line"/>
      <point x="-7" y="745" type="line"/>
      <point x="66" y="745" type="line"/>
      <point x="148" y="845" type="line"/>
      <point x="231" y="745" type="line"/>
      <point x="303" y="745" type="line"/>
    </contour>
    <component base="I"/>
  </outline>
</glyph>
<glyph name="idieresis" format="1">
  <advance width="305"/>
  <unicode hex="00EF"/>
  <outline>
    <contour>
      <point x="301" y="822" type="line"/>
      <point x="240" y="883" type="line"/>
      <point x="240" y="883" type="line"/>
      <point x="179" y="822" type="line"/>
      <point x="179" y="822" type="line"/>
      <point x="240" y="761" type="line"/>
      <point x="240" y="761" type="line"/>
    </contour>
    <contour>
      <point x="121" y="822" type="line"/>
      <point x="60" y="883" type="line"/>
      <point x="60" y="883" type="line"/>
      <point x="-1" y="822" type="line"/>
      <point x="-1" y="822" type="line"/>
      <point x="60" y="761" type="line"/>
      <point x="60" y="761" type="line"/>
    </contour>
    <component base="I"/>
  </outline>
</glyph>
<glyph name="eth" format="1">
  <advance width="833"/>
  <unicode hex="00F0"/>
  <outline>
    <contour>
      <point x="409" y="719" type="curve" smooth="yes"/>
      <point x="327" y="719"/>
      <point x="251" y="696"/>
      <point x="188" y="657" type="curve"/>
      <point x="188" y="672" type="line"/>
      <point x="229" y="713" type="line"/>
      <point x="188" y="713" type="line"/>
      <point x="167" y="713" type="line"/>
      <point x="112" y="713" type="line"/>
      <point x="51" y="713" type="line"/>
      <point x="112" y="652" type="line"/>
      <point x="112" y="62" type="line"/>
      <point x="51" y="1" type="line"/>
      <point x="112" y="1" type="line"/>
      <point x="167" y="1" type="line"/>
      <point x="188" y="1" type="line"/>
      <point x="229" y="1" type="line"/>
      <point x="188" y="42" type="line"/>
      <point x="188" y="55" type="line"/>
      <point x="251" y="16"/>
      <point x="327" y="-7"/>
      <point x="409" y="-7" type="curve" smooth="yes"/>
      <point x="627" y="-7"/>
      <point x="803" y="155"/>
      <point x="803" y="356" type="curve" smooth="yes"/>
      <point x="803" y="556"/>
      <point x="627" y="719"/>
    </contour>
    <contour>
      <point x="731" y="361" type="curve" smooth="yes"/>
      <point x="731" y="361"/>
      <point x="731" y="361"/>
      <point x="731" y="361" type="curve" smooth="yes"/>
      <point x="731" y="361"/>
      <point x="731" y="361"/>
      <point x="731" y="361" type="curve" smooth="yes"/>
      <point x="731" y="189"/>
      <point x="573" y="49"/>
      <point x="378" y="49" type="curve" smooth="yes"/>
      <point x="308" y="49"/>
      <point x="243" y="67"/>
      <point x="188" y="98" type="curve"/>
      <point x="188" y="624" type="line"/>
      <point x="243" y="655"/>
      <point x="308" y="673"/>
      <point x="378" y="673" type="curve" smooth="yes"/>
      <point x="570" y="673"/>
      <point x="727" y="537"/>
      <point x="731" y="368" type="curve" smooth="yes"/>
      <point x="731" y="366"/>
      <point x="731" y="363"/>
    </contour>
  </outline>
</glyph>
<glyph name="ograve" format="1">
  <advance width="897"/>
  <unicode hex="00F2"/>
  <outline>
    <contour>
      <point x="507" y="867" type="line"/>
      <point x="507" y="867"/>
      <point x="483" y="839"/>
      <point x="483" y="804" type="curve" smooth="yes"/>
      <point x="483" y="769"/>
      <point x="537" y="733"/>
      <point x="537" y="733" type="curve"/>
      <point x="537" y="733"/>
      <point x="403" y="772"/>
      <point x="359" y="867" type="curve"/>
    </contour>
    <component base="O" xOffset="20"/>
  </outline>
</glyph>
<glyph name="oacute" format="1">
  <advance width="897"/>
  <unicode hex="00F3"/>
  <outline>
    <contour>
      <point x="399" y="867" type="line"/>
      <point x="399" y="867"/>
      <point x="423" y="839"/>
      <point x="423" y="804" type="curve" smooth="yes"/>
      <point x="423" y="769"/>
      <point x="369" y="733"/>
      <point x="369" y="733" type="curve"/>
      <point x="369" y="733"/>
      <point x="503" y="772"/>
      <point x="547" y="867" type="curve"/>
    </contour>
    <component base="O" xOffset="20"/>
  </outline>
</glyph>
<glyph name="ydieresis" format="1">
  <advance width="708"/>
  <unicode hex="00FF"/>
  <outline>
    <contour>
      <point x="500" y="822" type="line"/>
      <point x="439" y="883" type="line"/>
      <point x="439" y="883" type="line"/>
      <point x="378" y="822" type="line"/>
      <point x="378" y="822" type="line"/>
      <point x="439" y="761" type="line"/>
      <point x="439" y="761" type="line"/>
    </contour>
    <contour>
      <point x="320" y="822" type="line"/>
      <point x="259" y="883" type="line"/>
      <point x="259" y="883" type="line"/>
      <point x="198" y="822" type="line"/>
      <point x="198" y="822" type="line"/>
      <point x="259" y="761" type="line"/>
      <point x="259" y="761" type="line"/>
    </contour>
    <component base="y"/>
  </outline>
</glyph>
<glyph name="endash" format="1">
  <advance width="575"/>
  <unicode hex="2013"/>
  <outline>
    <contour>
      <point x="502" y="357" type="line"/>
      <point x="71" y="357" type="line"/>
      <point x="71" y="401" type="line"/>
      <point x="502" y="401" type="line"/>
    </contour>
  </outline>
</glyph>
<glyph name="emdash" format="1">
  <advance width="575"/>
  <unicode hex="2014"/>
  <outline>
    <contour>
      <point x="502" y="357" type="line"/>
      <point x="71" y="357" type="line"/>
      <point x="71" y="401" type="line"/>
      <point x="502" y="401" type="line"/>
    </contour>
  </outline>
</glyph>
<glyph name="quoteleft" format="1">
  <advance width="215"/>
  <unicode hex="2018"/>
  <outline>
    <contour>
      <point x="177" y="583" type="line" smooth="yes"/>
      <point x="177" y="583"/>
      <point x="153" y="621"/>
      <point x="153" y="656" type="curve" smooth="yes"/>
      <point x="153" y="691"/>
      <point x="177" y="747"/>
      <point x="177" y="747" type="curve" smooth="yes"/>
      <point x="177" y="747"/>
      <point x="73" y="678"/>
      <point x="29" y="583" type="curve"/>
    </contour>
  </outline>
</glyph>
<glyph name="quotedblleft" format="1">
  <advance width="355"/>
  <unicode hex="201C"/>
  <outline>
    <contour>
      <point x="157" y="583" type="line" smooth="yes"/>
      <point x="157" y="583"/>
      <point x="133" y="621"/>
      <point x="133" y="656" type="curve" smooth="yes"/>
      <point x="133" y="691"/>
      <point x="157" y="747"/>
      <point x="157" y="747" type="curve" smooth="yes"/>
      <point x="157" y="747"/>
      <point x="53" y="678"/>
      <point x="9" y="583" type="curve"/>
    </contour>
    <contour>
      <point x="337" y="583" type="line"/>
      <point x="337" y="583"/>
      <point x="313" y="621"/>
      <point x="313" y="656" type="curve" smooth="yes"/>
      <point x="313" y="691"/>
      <point x="337" y="747"/>
      <point x="337" y="747" type="curve"/>
      <point x="337" y="747"/>
      <point x="233" y="678"/>
      <point x="189" y="583" type="curve"/>
    </contour>
  </outline>
</glyph>
<glyph name="quotedblright" format="1">
  <advance width="355"/>
  <unicode hex="201D"/>
  <outline>
    <contour>
      <point x="189" y="747" type="line" smooth="yes"/>
      <point x="189" y="747"/>
      <point x="213" y="709"/>
      <point x="213" y="674" type="curve" smooth="yes"/>
      <point x="213" y="639"/>
      <point x="189" y="583"/>
      <point x="189" y="583" type="curve" smooth="yes"/>
      <point x="189" y="583"/>
      <point x="293" y="652"/>
      <point x="337" y="747" type="curve"/>
    </contour>
    <contour>
      <point x="9" y="747" type="line"/>
      <point x="9" y="747"/>
      <point x="33" y="709"/>
      <point x="33" y="674" type="curve" smooth="yes"/>
      <point x="33" y="639"/>
      <point x="9" y="583"/>
      <point x="9" y="583" type="curve"/>
      <point x="9" y="583"/>
      <point x="113" y="652"/>
      <point x="157" y="747" type="curve"/>
    </contour>
  </outline>
</glyph>
<glyph name="quotedblbase" format="1">
  <advance width="417"/>
  <unicode hex="201E"/>
  <outline>
    <contour>
      <point x="250" y="81" type="line" smooth="yes"/>
      <point x="250" y="81"/>
      <point x="274" y="43"/>
      <point x="274" y="8" type="curve" smooth="yes"/>
      <point x="274" y="-27"/>
      <point x="250" y="-83"/>
      <point x="250" y="-83" type="curve" smooth="yes"/>
      <point x="250" y="-83"/>
      <point x="354" y="-14"/>
      <point x="397" y="81" type="curve"/>
    </contour>
    <contour>
      <point x="40" y="81" type="line" smooth="yes"/>
      <point x="40" y="81"/>
      <point x="64" y="43"/>
      <point x="64" y="8" type="curve" smooth="yes"/>
      <point x="64" y="-27"/>
      <point x="40" y="-83"/>
      <point x="40" y="-83" type="curve" smooth="yes"/>
      <point x="40" y="-83"/>
      <point x="144" y="-14"/>
      <point x="187" y="81" type="curve"/>
    </contour>
  </outline>
</glyph>
<glyph name="bullet" format="1">
  <advance width="265"/>
  <unicode hex="2022"/>
  <outline>
    <contour>
      <point x="212" y="378" type="line"/>
      <point x="212" y="378" type="line"/>
      <point x="126" y="464" type="line"/>
      <point x="126" y="464" type="line"/>
      <point x="40" y="378" type="line"/>
      <point x="40" y="378" type="line"/>
      <point x="126" y="292" type="line"/>
      <point x="126" y="292" type="line"/>
    </contour>
    <contour>
      <point x="126" y="378" type="line"/>
      <point x="126" y="378" type="line"/>
      <point x="126" y="378" type="line"/>
      <point x="126" y="378" type="line"/>
    </contour>
  </outline>
</glyph>
<glyph name="ellipsis" format="1">
  <advance width="534"/>
  <unicode hex="2026"/>
  <outline>
    <contour>
      <point x="152" y="32" type="line"/>
      <point x="152" y="32" type="line"/>
      <point x="91" y="93" type="line"/>
      <point x="91" y="93" type="line"/>
      <point x="30" y="32" type="line"/>
      <point x="30" y="32" type="line"/>
      <point x="91" y="-29" type="line"/>
      <point x="91" y="-29" type="line"/>
    </contour>
    <contour>
      <point x="91" y="32" type="line"/>
      <point x="91" y="32" type="line"/>
      <point x="91" y="32" type="line"/>
      <point x="91" y="32" type="line"/>
    </contour>
    <contour>
      <point x="330" y="32" type="line"/>
      <point x="330" y="32" type="line"/>
      <point x="269" y="93" type="line"/>
      <point x="269" y="93" type="line"/>
      <point x="208" y="32" type="line"/>
      <point x="208" y="32" type="line"/>
      <point x="269" y="-29" type="line"/>
      <point x="269" y="-29" type="line"/>
    </contour>
    <contour>
      <point x="269" y="32" type="line"/>
      <point x="269" y="32" type="line"/>
      <point x="269" y="32" type="line"/>
      <point x="269" y="32" type="line"/>
    </contour>
    <contour>
      <point x="508" y="32" type="line"/>
      <point x="508" y="32" type="line"/>
      <point x="447" y="93" type="line"/>
      <point x="447" y="93" type="line"/>
      <point x="386" y="32" type="line"/>
      <point x="386" y="32" type="line"/>
      <point x="447" y="-29" type="line"/>
      <point x="447" y="-29" type="line"/>
    </contour>
    <contour>
      <point x="447" y="32" type="line"/>
      <point x="447" y="32" type="line"/>
      <point x="447" y="32" type="line"/>
      <point x="447" y="32" type="line"/>
    </contour>
  </outline>
</glyph>
<glyph name="guilsinglleft" format="1">
  <advance width="335"/>
  <unicode hex="2039"/>
  <outline>
    <contour>
      <point x="275" y="577" type="line"/>
      <point x="191" y="577" type="line"/>
      <point x="-1" y="370" type="line"/>
      <point x="211" y="163" type="line"/>
      <point x="304" y="163" type="line"/>
      <point x="70" y="370" type="line"/>
    </contour>
  </outline>
</glyph>
<glyph name="guilsinglright" format="1">
  <advance width="335"/>
  <unicode hex="203A"/>
  <outline>
    <contour>
      <point x="28" y="577" type="line"/>
      <point x="112" y="577" type="line"/>
      <point x="304" y="370" type="line"/>
      <point x="92" y="163" type="line"/>
      <point x="-1" y="163" type="line"/>
      <point x="233" y="370" type="line"/>
    </contour>
  </outline>
</glyph>
<glyph name="OE" format="1">
  <advance width="897"/>
  <outline>
    <contour>
      <point x="440" y="900" type="line"/>
      <point x="285" y="745" type="line"/>
      <point x="358" y="745" type="line"/>
      <point x="440" y="845" type="line"/>
      <point x="523" y="745" type="line"/>
      <point x="595" y="745" type="line"/>
    </contour>
    <component base="O" xOffset="20"/>
  </outline>
</glyph>
